<?xml version="1.0" encoding="utf-8"?><svg viewBox="0 0 110 34" xmlns="http://www.w3.org/2000/svg" xmlns:xlink="http://www.w3.org/1999/xlink"><style>:root>svg{display:none}:root>svg:target{display:block}</style><svg fill="none" viewBox="0 0 71 16" id="arrow_left" xmlns="http://www.w3.org/2000/svg"><path d="M.293 8.707a1 1 0 010-1.414L6.657.929A1 1 0 018.07 2.343L2.414 8l5.657 5.657a1 1 0 11-1.414 1.414L.293 8.707zM71 9H1V7h70v2z" fill="#fff"/></svg><svg fill="none" viewBox="0 0 72 16" id="arrow_right" xmlns="http://www.w3.org/2000/svg"><path d="M70.969 8.707a1 1 0 000-1.414L64.605.929a1 1 0 10-1.414 1.414L68.847 8l-5.656 5.657a1 1 0 001.414 1.414l6.364-6.364zM.262 9h70V7h-70v2z" fill="#fff"/></svg><svg fill="none" viewBox="0 0 31 31" id="facebook" xmlns="http://www.w3.org/2000/svg"><path d="M15.5 0C6.997 0 .08 6.918.08 15.42a15.42 15.42 0 003.452 9.725A9.248 9.248 0 01.433 29.17a.717.717 0 00.196 1.255c1.117.381 2.281.575 3.46.575 1.872 0 3.701-.487 5.314-1.412a15.293 15.293 0 006.097 1.253c8.503 0 15.42-6.917 15.42-15.42S24.004 0 15.5 0zm0 29.407c-2.039 0-4.005-.43-5.844-1.277a.717.717 0 00-.68.042 9.24 9.24 0 01-6.607 1.232 10.653 10.653 0 002.658-4.165.717.717 0 00-.134-.703 13.983 13.983 0 01-3.38-9.115c0-7.712 6.275-13.986 13.987-13.986S29.486 7.709 29.486 15.42c0 7.712-6.274 13.986-13.986 13.986z" fill="#fff"/><path d="M19.625 10.869h-2.028v-.664c0-.054.006-.09.01-.11a.22.22 0 01.037-.002h1.937a.717.717 0 00.717-.717v-2.96a.717.717 0 00-.714-.717l-2.67-.01c-3.213 0-4.353 2.336-4.353 4.336v.844h-.995a.717.717 0 00-.717.717v3.454c0 .396.321.717.717.717h1.01v7.917c0 .396.32.718.717.718h3.454a.717.717 0 00.717-.718v-7.917h1.846c.371 0 .68-.282.714-.652l.315-3.454a.717.717 0 00-.714-.782zm-.97 3.454h-1.908a.717.717 0 00-.718.717v7.917H14.01V15.04a.717.717 0 00-.717-.717h-1.01v-2.02h.996a.717.717 0 00.717-.717v-1.56c0-.873.284-2.903 2.914-2.903l1.954.008v1.528h-1.22c-.714 0-1.481.484-1.481 1.546v1.381c0 .396.32.717.717.717h1.96l-.185 2.02z" fill="#fff"/></svg><svg fill="none" viewBox="0 0 110 21" id="logo" xmlns="http://www.w3.org/2000/svg"><path d="M103.917 10.625c0 2.98-2.614 5.459-5.917 5.459s-5.917-2.478-5.917-5.459c0-2.98 2.614-5.458 5.917-5.458s5.917 2.478 5.917 5.458zM93.046 7.753l-2.75-2.49M90.167 5.91V1M103.748 10.438l2.75-1.573M106.352 9.178l2.493-4.259M91.665 11.565l-2.75 1.573M89.062 12.825l-2.493 4.259M104.335 11.4l2.75 1.574M106.938 12.66l2.493 4.26M93.046 13.497l-2.75 2.49M90.167 15.34v4.91M102.954 7.753l2.749-2.49M105.833 5.91V1M102.954 13.497l2.749 2.49M105.833 15.34v4.91" stroke="#ADFFDC"/><path d="M100.75 5.767c0-2.126-1.231-3.85-2.75-3.85s-2.75 1.724-2.75 3.85M92.252 10.601l-2.75-1.573M89.649 9.341l-2.494-4.259" stroke="#ADFFDC"/><path d="M9.43 6.273l3.125 7.586 3.039-7.445c.12-.307.208-.568.265-.781.058-.214.086-.396.086-.547 0-.047-.002-.094-.008-.14a.458.458 0 00-.023-.118v-.031h1.547v.031a2.514 2.514 0 00-.344.547c-.12.25-.26.56-.422.93l-4.172 9.937h-.593L8.89 8.867l-2.773 7.375h-.586L1.703 6.687c-.094-.223-.19-.44-.289-.648a9.613 9.613 0 00-.273-.562 6.98 6.98 0 00-.227-.422 2.369 2.369 0 00-.156-.227v-.031h2.164v.031a.799.799 0 00-.016.133v.11c0 .176.018.364.055.562.042.198.12.437.234.719l2.938 7.421 2.804-7.468.493-.032zm10.672 1.329h1.57c.536-.006 1.034-.01 1.492-.016.458-.01.852-.02 1.18-.031.333-.01.552-.026.656-.047l-.305.844a6.223 6.223 0 00-1.047-.172 6.563 6.563 0 00-.765-.04c-.104 0-.224.006-.36.016a8.762 8.762 0 00-.39.024l-.445.03v3.087c.421-.005.802-.016 1.14-.031.339-.016.628-.037.867-.063.282-.02.529-.05.742-.086l-.187.93a23.271 23.271 0 00-.867-.094c-.25-.026-.526-.047-.828-.062-.302-.021-.591-.032-.867-.032v3.547c.484 0 .93-.018 1.335-.054.407-.042.76-.086 1.063-.133.354-.057.674-.123.96-.196l-.179 1.024a60.798 60.798 0 00-.383-.024l-.547-.015c-.187 0-.364-.003-.53-.008H20.101v-.031c.036-.11.067-.25.093-.422.032-.172.055-.383.07-.633a17.8 17.8 0 00.047-.906c.01-.35.016-.758.016-1.227v-1.969c0-.468-.005-.874-.015-1.218-.01-.35-.026-.649-.047-.899a5.56 5.56 0 00-.07-.64 2.604 2.604 0 00-.094-.422v-.031zm11.312 4.289c-.25 0-.463.01-.64.03a5.699 5.699 0 00-.399.048v1.937c.005.302.01.555.016.758l.023.492c.005.12.013.224.023.313.136.036.28.06.43.07.156.01.279.016.367.016.72 0 1.24-.157 1.563-.47.328-.317.492-.806.492-1.468 0-.25-.039-.482-.117-.695a1.433 1.433 0 00-.352-.547 1.601 1.601 0 00-.586-.352 2.317 2.317 0 00-.82-.132zm-1.039-.532c.104.016.198.026.281.032h.258c.526 0 .943-.146 1.25-.438.313-.291.469-.726.469-1.305 0-.234-.031-.45-.094-.648a1.442 1.442 0 00-.273-.508c-.115-.14-.26-.25-.438-.328a1.421 1.421 0 00-.594-.117c-.15 0-.278.008-.382.023-.105.01-.193.021-.266.032-.083.02-.154.039-.211.054v3.203zm-1.586-3.773c.099.005.2.008.305.008.088.005.185.008.289.008h.305c.161 0 .385-.01.671-.032.287-.02.644-.03 1.07-.03.38 0 .732.046 1.055.14.328.088.61.218.844.39a1.79 1.79 0 01.758 1.485c0 .27-.04.513-.117.726a1.68 1.68 0 01-.32.555c-.141.156-.31.289-.508.398a3.068 3.068 0 01-.657.25c.35.053.667.138.953.258.287.12.532.271.735.453.203.177.36.388.469.633.109.24.164.508.164.805 0 .823-.295 1.44-.883 1.851-.589.407-1.466.61-2.633.61-.125 0-.281-.006-.469-.016l-.578-.031-.578-.031a8.315 8.315 0 00-.46-.016h-.415v-.031c.037-.11.068-.25.094-.422.031-.172.055-.383.07-.633a17.8 17.8 0 00.047-.906c.01-.35.016-.758.016-1.227v-1.969c0-.468-.006-.877-.016-1.226s-.026-.651-.047-.906a5.56 5.56 0 00-.07-.64 2.603 2.603 0 00-.094-.423v-.031zm14.39-1.008h-.171a2.104 2.104 0 00-.203-.406 1.686 1.686 0 00-.36-.422 1.79 1.79 0 00-.539-.336 1.89 1.89 0 00-.742-.133c-.255 0-.482.04-.68.117a1.393 1.393 0 00-.5.329c-.13.14-.229.307-.297.5a2.05 2.05 0 00.21 1.719c.215.338.48.674.798 1.007.318.333.662.667 1.032 1 .37.334.713.68 1.03 1.04.319.359.582.736.79 1.132.213.39.32.813.32 1.266 0 .338-.06.68-.18 1.023a2.589 2.589 0 01-.539.914c-.244.271-.56.492-.945.664-.385.167-.844.25-1.375.25-.297 0-.58-.029-.851-.086a5.668 5.668 0 01-.743-.195 5.6 5.6 0 01-.609-.266 4.664 4.664 0 01-.438-.258l.18-1.726h.196c.057.245.15.48.28.703.131.219.29.414.477.586.193.167.412.302.657.406.244.1.513.149.804.149.266 0 .503-.04.711-.117a1.7 1.7 0 00.547-.336c.151-.146.266-.318.344-.516.083-.198.125-.414.125-.649 0-.328-.06-.63-.18-.906a3.475 3.475 0 00-.476-.797 6.122 6.122 0 00-.664-.726 33.57 33.57 0 00-.758-.703c-.26-.24-.516-.485-.766-.735A6.41 6.41 0 0139 9.273a4.331 4.331 0 01-.469-.914 3.124 3.124 0 01-.18-1.078c0-.411.079-.781.235-1.11.161-.332.372-.616.633-.85a2.914 2.914 0 011.93-.727c.26 0 .5.02.718.062a4.906 4.906 0 011.047.32l.32.141-.054 1.461zm4.743 4.234c0-.468-.005-.874-.016-1.218-.01-.35-.026-.649-.047-.899a5.583 5.583 0 00-.07-.64 2.602 2.602 0 00-.094-.422v-.031H49.5v.03c-.036.11-.068.25-.094.423a9.69 9.69 0 00-.07.64c-.016.25-.029.55-.04.899-.01.344-.015.75-.015 1.219v.515l3.57-2.93c.199-.161.347-.304.446-.43a.58.58 0 00.156-.366h1.86v.03a2.617 2.617 0 00-.727.313 6.964 6.964 0 00-.781.57l-3.117 2.555 3.25 3.375c.432.453.796.8 1.093 1.04.302.234.534.395.696.484V16h-2.125c-.058-.104-.18-.258-.368-.46a73.417 73.417 0 00-.742-.79l-3.21-3.344v1.375c0 .469.005.878.015 1.227.01.349.023.65.039.906.02.25.044.461.07.633.026.172.058.312.094.422V16h-1.805v-.031c.037-.11.068-.25.094-.422a5.56 5.56 0 00.07-.633c.021-.255.037-.557.047-.906.01-.35.016-.758.016-1.227v-1.969zm10.875 0c0-.468-.005-.874-.016-1.218-.01-.35-.026-.649-.047-.899a5.583 5.583 0 00-.07-.64 2.602 2.602 0 00-.094-.422v-.031h1.813v.03c-.037.11-.07.25-.102.423a9.69 9.69 0 00-.07.64c-.016.25-.029.55-.04.899-.01.344-.015.75-.015 1.219v1.968c0 .469.005.878.016 1.227.01.349.023.65.039.906.02.25.044.461.07.633.032.172.065.312.102.422V16H58.57v-.031c.037-.11.068-.25.094-.422a5.56 5.56 0 00.07-.633c.021-.255.037-.557.047-.906.01-.35.016-.758.016-1.227v-1.969zm7.344 4.579c.484 0 .93-.019 1.336-.055.411-.042.77-.086 1.078-.133.36-.057.685-.122.976-.195l-.18 1.039a37.06 37.06 0 00-.374-.024l-.547-.015c-.193 0-.373-.003-.54-.008h-3.335v-.031c.036-.11.067-.25.093-.422.032-.172.055-.383.07-.633.022-.255.037-.557.048-.906.01-.35.015-.758.015-1.227v-1.969c0-.468-.005-.874-.015-1.218-.01-.35-.026-.649-.047-.899a5.58 5.58 0 00-.07-.64 2.604 2.604 0 00-.094-.422v-.031h1.804v.03c-.036.11-.067.25-.093.423-.026.172-.05.385-.07.64-.016.25-.03.55-.04.899-.01.344-.015.75-.015 1.219v4.578zm8.328 0c.484 0 .93-.019 1.336-.055.411-.042.77-.086 1.078-.133.36-.057.685-.122.976-.195l-.18 1.039a36.676 36.676 0 00-.374-.024l-.547-.015c-.193 0-.373-.003-.54-.008h-3.335v-.031c.036-.11.068-.25.094-.422.03-.172.054-.383.07-.633.02-.255.036-.557.047-.906.01-.35.015-.758.015-1.227v-1.969c0-.468-.005-.874-.015-1.218-.01-.35-.026-.649-.047-.899a5.605 5.605 0 00-.07-.64 2.602 2.602 0 00-.094-.422v-.031h1.805v.03c-.037.11-.068.25-.094.423-.026.172-.05.385-.07.64-.016.25-.03.55-.04.899-.01.344-.015.75-.015 1.219v4.578z" fill="#EFEEEE"/></svg><svg fill="none" viewBox="0 0 16 22" id="pause" xmlns="http://www.w3.org/2000/svg"><path fill="#fff" d="M0 0h4.174v21.565H0zM11.826 0H16v21.565h-4.174z"/></svg><svg fill="none" viewBox="0 0 20 34" id="phone" xmlns="http://www.w3.org/2000/svg"><path d="M8.7 1.791a.099.099 0 100-.198.099.099 0 000 .198zM8.988 1.791a.099.099 0 100-.198.099.099 0 000 .198zM9.275 1.791a.099.099 0 100-.198.099.099 0 000 .198zM9.562 1.791a.099.099 0 100-.198.099.099 0 000 .198zM9.85 1.791a.099.099 0 100-.198.099.099 0 000 .198zM10.138 1.791a.099.099 0 100-.198.099.099 0 000 .198zM10.425 1.791a.099.099 0 100-.198.099.099 0 000 .198zM10.713 1.791a.099.099 0 100-.198.099.099 0 000 .198zM11 1.791a.099.099 0 100-.198.099.099 0 000 .198zM11.289 1.791a.099.099 0 100-.198.099.099 0 000 .198zM11.576 1.791a.099.099 0 100-.198.099.099 0 000 .198zM11.864 1.791a.099.099 0 100-.198.099.099 0 000 .198zM12.15 1.791a.099.099 0 100-.198.099.099 0 000 .198zM12.439 1.791a.099.099 0 100-.198.099.099 0 000 .198z" fill="#fff"/><path d="M17.835.27H3.037C1.841.27.872 1.24.872 2.437V31.49c0 1.196.97 2.165 2.165 2.165h14.798c1.196 0 2.165-.97 2.165-2.165V2.436A2.164 2.164 0 0017.835.27zm-1.514 1.286a.24.24 0 110 .48.24.24 0 010-.48zM7.876 1.35h5.348a.341.341 0 110 .682H7.875a.341.341 0 110-.682zM5.693 32.23h-.526a.064.064 0 010-.128h.526c.036.001.064.03.064.065a.064.064 0 01-.064.064zm0-.256h-.526a.064.064 0 010-.127h.526a.064.064 0 110 .127zm.444.167a.137.137 0 11-.274 0v-.452h-.866v.452a.137.137 0 11-.274 0v-.588c0-.076.062-.138.137-.138H6c.076 0 .137.062.137.137v.59zm6.013-.042a.541.541 0 01-.541.541H9.24a.541.541 0 01-.542-.541v-.474c0-.299.242-.54.542-.54h2.368c.299 0 .541.241.541.54v.474zm3.535.205h-.43a.137.137 0 010-.274h.43a.164.164 0 00.168-.16.164.164 0 00-.168-.16h-.362c-.014.018-.03.028-.06.03-.008.004-.021-.002-.03-.006l-.224-.094a.073.073 0 010-.135l.223-.094a.073.073 0 01.08.015l.008.01h.365c.244 0 .441.195.441.434 0 .24-.197.434-.44.434zm2.871-1.897H2.136V3.609h16.42v26.798z" fill="#fff"/></svg><svg fill="none" viewBox="0 0 21 27" id="phone_icon" xmlns="http://www.w3.org/2000/svg"><path d="M2.34 8.64a4.546 4.546 0 012.198-6.042L10.032.036l1.92 4.12L2.34 8.64zM8.904 22.716l9.613-4.483 1.921 4.12-5.493 2.562a4.546 4.546 0 01-6.041-2.199z" fill="#fff"/><path fill="#fff" d="M1.54 6.923l4.12-1.921 8.004 17.167-4.12 1.921z"/></svg><svg fill="none" viewBox="0 0 22 23" id="play" xmlns="http://www.w3.org/2000/svg"><path d="M21.292 10.613a1 1 0 010 1.774L1.962 22.432A1 1 0 01.5 21.545V1.455A1 1 0 011.961.568l19.331 10.045z" fill="#fff"/></svg><svg fill="none" viewBox="0 0 26 26" id="share" xmlns="http://www.w3.org/2000/svg"><path d="M19.5 2.167a3.267 3.267 0 00-3.25 3.25c0 .207.024.408.061.605L8.582 10.53A3.216 3.216 0 006.5 9.75 3.267 3.267 0 003.25 13a3.267 3.267 0 003.25 3.25c.793 0 1.515-.301 2.082-.78l7.73 4.506c-.039.197-.062.4-.062.607a3.267 3.267 0 003.25 3.25 3.267 3.267 0 003.25-3.25 3.267 3.267 0 00-3.25-3.25c-.794 0-1.515.303-2.082.783l-7.73-4.51c.038-.197.062-.4.062-.606 0-.207-.024-.409-.061-.605l7.729-4.51c.567.48 1.289.782 2.082.782a3.267 3.267 0 003.25-3.25 3.267 3.267 0 00-3.25-3.25zm0 2.166c.611 0 1.083.473 1.083 1.084 0 .61-.472 1.083-1.083 1.083a1.067 1.067 0 01-1.083-1.083c0-.611.472-1.084 1.083-1.084zm-13 7.584c.611 0 1.083.472 1.083 1.083s-.472 1.083-1.083 1.083A1.067 1.067 0 015.417 13c0-.611.472-1.083 1.083-1.083zm13 7.583c.611 0 1.083.472 1.083 1.083 0 .612-.472 1.084-1.083 1.084a1.067 1.067 0 01-1.083-1.084c0-.61.472-1.083 1.083-1.083z" fill="#fff"/></svg><svg fill="none" viewBox="0 0 24 24" id="social_icon01" xmlns="http://www.w3.org/2000/svg"><g clip-path="url(#jclip0_3_78)"><path d="M13.162 18.994c.609 0 .858-.406.851-.915-.031-1.917.714-2.949 2.059-1.604 1.488 1.488 1.796 2.519 3.603 2.519h3.2c.808 0 1.126-.26 1.126-.668 0-.863-1.421-2.386-2.625-3.504-1.686-1.565-1.765-1.602-.313-3.486C22.864 8.997 25.22 6 23.136 6h-3.981c-.772 0-.828.435-1.103 1.083-.995 2.347-2.886 5.387-3.604 4.922-.751-.485-.407-2.406-.35-5.261.015-.754.011-1.271-1.141-1.539A8.07 8.07 0 0011.148 5c-2.273 0-3.841.953-2.95 1.119 1.571.293 1.42 3.692 1.054 5.16-.638 2.556-3.036-2.024-4.035-4.305C4.976 6.426 4.902 6 4.042 6H.787C.295 6 0 6.16 0 6.516c0 .602 2.96 6.72 5.786 9.77 2.756 2.975 5.48 2.708 7.376 2.708z" fill="#fff"/></g><defs><clipPath id="jclip0_3_78"><path fill="#fff" d="M0 0h24v24H0z"/></clipPath></defs></svg><svg fill="none" viewBox="0 0 24 24" id="social_icon02" xmlns="http://www.w3.org/2000/svg"><g clip-path="url(#kclip0_3_62)"><path fill-rule="evenodd" clip-rule="evenodd" d="M18.384 22.779a1.19 1.19 0 001.107.145 1.16 1.16 0 00.724-.84C21.084 18 23.192 7.663 23.983 3.948a.78.78 0 00-.26-.758.8.8 0 00-.797-.14C18.733 4.602 5.82 9.447.542 11.4a.827.827 0 00-.542.799c.012.354.25.661.593.764 2.367.708 5.474 1.693 5.474 1.693s1.452 4.385 2.209 6.615c.095.28.314.5.603.576a.866.866 0 00.811-.207l3.096-2.923s3.572 2.619 5.598 4.062zm-11.01-8.677l1.679 5.538.373-3.507 10.185-9.186a.277.277 0 00.033-.377.284.284 0 00-.376-.064L7.374 14.102z" fill="#fff"/></g><defs><clipPath id="kclip0_3_62"><path fill="#fff" d="M0 0h24v24H0z"/></clipPath></defs></svg><svg fill="none" viewBox="0 0 24 24" id="social_icon03" xmlns="http://www.w3.org/2000/svg"><path d="M20 22.621l-3.521-6.795a618.8 618.8 0 01-2.064 1.011c-2.24 1.086-6.799-7.82-4.609-8.994l2.083-1.026L8.396 0 6.29 1.039c-7.202 3.755 4.233 25.982 11.6 22.615.121-.055 2.102-1.029 2.11-1.033z" fill="#fff"/></svg><svg fill="none" viewBox="0 0 24 24" id="social_icon04" xmlns="http://www.w3.org/2000/svg"><path d="M0 24l1.687-6.163A11.867 11.867 0 01.1 11.891C.103 5.335 5.438 0 11.993 0a11.817 11.817 0 018.413 3.488 11.824 11.824 0 013.48 8.414c-.003 6.557-5.338 11.892-11.893 11.892a11.9 11.9 0 01-5.688-1.448L0 24zm6.597-3.807c1.676.995 3.276 1.591 5.392 1.592 5.448 0 9.886-4.434 9.889-9.885.002-5.462-4.415-9.89-9.881-9.892-5.452 0-9.887 4.434-9.889 9.884-.001 2.225.651 3.891 1.746 5.634l-.999 3.648 3.742-.981zm11.387-5.464c-.074-.124-.272-.198-.57-.347-.297-.149-1.758-.868-2.031-.967-.272-.099-.47-.149-.669.149-.198.297-.768.967-.941 1.165-.173.198-.347.223-.644.074-.297-.149-1.255-.462-2.39-1.475-.883-.788-1.48-1.761-1.653-2.059-.173-.297-.018-.458.13-.606.134-.133.297-.347.446-.521.151-.172.2-.296.3-.495.099-.198.05-.372-.025-.521-.075-.148-.669-1.611-.916-2.206-.242-.579-.487-.501-.669-.51l-.57-.01c-.198 0-.52.074-.792.372S5.95 7.788 5.95 9.251s1.065 2.876 1.213 3.074c.149.198 2.095 3.2 5.076 4.487.709.306 1.263.489 1.694.626.712.226 1.36.194 1.872.118.571-.085 1.758-.719 2.006-1.413.248-.695.248-1.29.173-1.414z" fill="#fff"/></svg><svg fill="none" viewBox="0 0 28 25" id="telegram" xmlns="http://www.w3.org/2000/svg"><path d="M25.927.002c-.361.017-.702.122-1.005.239h-.004c-.308.121-1.768.732-3.985 1.656l-7.953 3.33C7.275 7.614 1.666 9.964 1.666 9.964l.067-.025s-.387.126-.79.402a2.182 2.182 0 00-.632.606 1.774 1.774 0 00-.299 1.188c.097.774.602 1.238.964 1.493.366.26.715.38.715.38H1.7l5.26 1.762c.235.752 1.602 5.22 1.93 6.248.194.615.383 1 .62 1.293.113.15.247.276.407.376a1.205 1.205 0 00.265.113l-.054-.012c.016.004.03.016.042.02.042.013.071.017.126.026.833.25 1.502-.264 1.502-.264l.038-.03 3.105-2.81 5.205 3.97.118.05c1.085.472 2.184.209 2.764-.256.585-.468.812-1.066.812-1.066l.038-.096L27.901 2.85c.113-.506.143-.98.017-1.44-.127-.46-.45-.89-.842-1.12a2.025 2.025 0 00-1.149-.289zm-.109 2.196c-.004.067.008.059-.021.188V2.4l-3.985 20.269c-.017.029-.046.092-.126.154-.084.067-.151.11-.5-.029l-6.367-4.852-3.846 3.484.808-5.127s9.972-9.24 10.402-9.637c.429-.397.286-.481.286-.481.03-.485-.648-.142-.648-.142L8.705 14.114l-.004-.02-6.286-2.104v-.005l-.017-.004c.004 0 .034-.012.034-.012l.033-.017.034-.013 11.319-4.738c2.857-1.197 5.735-2.401 7.948-3.33 2.213-.924 3.85-1.602 3.943-1.64.088-.033.046-.033.109-.033z" fill="#fff"/></svg><svg fill="none" viewBox="0 0 29 27" id="twitter" xmlns="http://www.w3.org/2000/svg"><path fill-rule="evenodd" clip-rule="evenodd" d="M27.002 3.565L29 3.8l-.898 1.811-1.315 2.65c-.052.187-.144.351-.28.565-.056.089-.249.373-.258.386-.05.077-.088.138-.116.187v3.394C26.133 21.48 17.78 27 9.891 27c-1.614 0-2.84-.078-4.245-.386-2.311-.508-4.031-1.517-4.818-3.28l-.81-1.815 1.968-.183c1.782-.164 3.327-.506 4.513-.963-3.257-.527-5.082-1.967-5.082-4.67v-1.421H2.83c.31 0 .59-.025.84-.072C1.226 12.74.002 10.38.002 7.108L0 6.82c-.01-1.65.078-2.53.527-3.655a6.52 6.52 0 011.263-2L2.856 0l1.036 1.192c3.415 3.927 6.79 6.31 10.237 6.597.014-3.623 2.736-6.366 6.355-6.366 1.687 0 3.218.645 4.42 1.807.659.136 1.358.248 2.098.335zm-3.122 2.35l-.433-.098-.3-.33c-.722-.799-1.63-1.221-2.663-1.221-2.066 0-3.53 1.481-3.53 3.553 0 .339-.01.551-.052.83-.167 1.117-.789 2.013-2.067 2.013-4.234 0-8.054-2.283-11.779-6.182-.192.588-.237 1.191-.23 2.324v.304c0 2.911 1.172 4.503 3.947 5.39l.984.316v1.04c0 1.26-1.187 2.447-2.923 2.978.796.608 2.424.936 5.057.936h1.413v1.421c0 2.036-2.325 3.63-5.837 4.463 1.145.353 2.67.505 4.424.505 6.517 0 13.418-4.56 13.418-11.364V9.24c0-.417.12-.78.32-1.157a5.29 5.29 0 01.27-.448l.153-.226.112-.226.544-1.095a23.712 23.712 0 01-.828-.173z" fill="#fff"/></svg><svg fill="none" viewBox="0 0 32 20" id="vk" xmlns="http://www.w3.org/2000/svg"><path d="M31.266 1.354C31.49.573 31.266 0 30.21 0h-3.502c-.891 0-1.298.496-1.522 1.04 0 0-1.78 4.57-4.303 7.532-.815.862-1.187 1.134-1.631 1.134-.222 0-.545-.272-.545-1.054V1.354c0-.937-.257-1.354-1-1.354h-5.502a.863.863 0 00-.891.847c0 .887 1.261 1.092 1.39 3.593v5.424c0 1.188-.202 1.405-.65 1.405-1.186 0-4.073-4.586-5.787-9.836C5.933.413 5.596.002 4.701.002h-3.5C.2.002 0 .497 0 1.042 0 2.02 1.187 6.859 5.527 13.26 8.421 17.63 12.494 20 16.206 20c2.224 0 2.499-.526 2.499-1.433v-3.304c0-1.052.212-1.264.917-1.264.517 0 1.408.276 3.486 2.381 2.373 2.498 2.765 3.618 4.099 3.618h3.5c1 0 1.5-.526 1.212-1.564-.314-1.034-1.448-2.538-2.952-4.317-.818-1.015-2.04-2.107-2.412-2.653-.519-.705-.369-1.015 0-1.64.002.001 4.267-6.32 4.711-8.47z" fill="#fff"/></svg><svg fill="none" viewBox="0 0 27 28" id="whatsapp" xmlns="http://www.w3.org/2000/svg"><path fill-rule="evenodd" clip-rule="evenodd" d="M23.066 4.07a13.338 13.338 0 00-4.36-3.019A12.996 12.996 0 0013.557 0C6.148 0 .117 6.224.113 13.875c0 2.445.619 4.831 1.794 6.936L0 28l7.127-1.93a13.12 13.12 0 006.424 1.689h.006c7.408 0 13.44-6.224 13.443-13.875.005-1.823-.34-3.629-1.015-5.314a13.834 13.834 0 00-2.919-4.5zm-9.51 21.347h-.004c-2.001 0-3.966-.555-5.687-1.609l-.407-.25-4.23 1.145 1.128-4.255-.265-.436a11.786 11.786 0 01-1.708-6.137C2.386 7.516 7.398 2.343 13.56 2.343a10.802 10.802 0 014.278.874 11.087 11.087 0 013.622 2.508 11.499 11.499 0 012.426 3.742c.56 1.4.847 2.902.843 4.417-.003 6.359-5.015 11.533-11.173 11.533zm6.13-8.638c-.337-.175-1.987-1.012-2.296-1.128-.306-.116-.53-.173-.754.173-.225.346-.869 1.127-1.065 1.358-.196.232-.392.26-.728.087-.335-.173-1.418-.54-2.701-1.72-1-.92-1.673-2.054-1.87-2.402-.195-.348-.02-.535.15-.708.15-.155.335-.405.502-.607.168-.203.223-.347.336-.579.112-.231.057-.434-.029-.607-.084-.175-.756-1.88-1.036-2.575-.271-.672-.548-.583-.755-.592a14 14 0 00-.642-.012c-.17.004-.338.045-.492.12A1.241 1.241 0 007.9 7.9c-.309.347-1.176 1.185-1.176 2.891 0 1.707 1.204 3.356 1.372 3.588.168.232 2.369 3.732 5.738 5.235a19.5 19.5 0 001.916.73c.804.265 1.536.226 2.116.138.645-.099 1.987-.837 2.267-1.647.28-.81.28-1.504.196-1.65-.084-.145-.31-.233-.644-.406" fill="#fff"/></svg></svg>